<svg width="24" height="26" viewBox="0 0 24 26" fill="none" xmlns="http://www.w3.org/2000/svg">
<path d="M17.6298 0.51245C17.5696 0.453075 15.4023 0.535887 13.5163 2.34369C11.6303 4.14993 11.9204 6.2218 11.9629 6.27492C12.0053 6.32805 14.6521 6.41086 16.3418 4.30931C18.0314 2.20775 17.69 0.573387 17.6298 0.51245M23.4931 18.8452C23.4082 18.6952 19.3796 16.9171 19.7547 13.4983C20.1298 10.0796 22.7182 9.14053 22.7589 9.03897C22.7996 8.93741 21.7026 7.8046 20.5402 7.23117C19.6866 6.82726 18.7421 6.59566 17.7749 6.55304C17.5838 6.54836 16.9203 6.40461 15.5562 6.73429C14.6574 6.95148 12.6316 7.6546 12.0743 7.68273C11.5152 7.71085 9.85215 6.8671 8.06343 6.64367C6.91873 6.44836 5.70502 6.84836 4.83631 7.15617C3.96938 7.46241 2.32043 8.33429 1.16688 10.6515C0.0133236 12.9671 0.61664 16.6358 1.04834 17.7764C1.48004 18.917 2.15412 20.7827 3.3006 22.1452C4.31969 23.6826 5.6714 24.7498 6.23579 25.1123C6.80019 25.4748 8.39252 25.7154 9.49653 25.217C10.3847 24.7358 11.9876 24.4592 12.621 24.4795C13.2527 24.4998 14.4982 24.7201 15.7738 25.3217C16.7841 25.6295 17.7395 25.5014 18.6967 25.1576C19.6538 24.8123 21.0391 23.503 22.6562 20.8483C23.2696 19.6139 23.5485 18.9462 23.4931 18.8452" fill="white"/>
</svg>
