<svg width="26" height="26" viewBox="0 0 26 26" fill="none" xmlns="http://www.w3.org/2000/svg">
<path d="M25.3402 10.6351H24.3334V10.5832H13.0834V15.5832H20.1477C19.1171 18.4939 16.3477 20.5832 13.0834 20.5832C8.94149 20.5832 5.58337 17.2251 5.58337 13.0832C5.58337 8.94137 8.94149 5.58325 13.0834 5.58325C14.9952 5.58325 16.7346 6.3045 18.059 7.48262L21.5946 3.947C19.3621 1.86638 16.3759 0.583252 13.0834 0.583252C6.18025 0.583252 0.583374 6.18012 0.583374 13.0832C0.583374 19.9864 6.18025 25.5832 13.0834 25.5832C19.9865 25.5832 25.5834 19.9864 25.5834 13.0832C25.5834 12.2451 25.4971 11.427 25.3402 10.6351Z" fill="#FFC107"/>
<path d="M2.02466 7.26512L6.13153 10.277C7.24278 7.52575 9.93403 5.58325 13.0834 5.58325C14.9953 5.58325 16.7347 6.3045 18.059 7.48262L21.5946 3.947C19.3622 1.86638 16.3759 0.583252 13.0834 0.583252C8.28216 0.583252 4.11841 3.29388 2.02466 7.26512Z" fill="#FF3D00"/>
<path d="M13.0833 25.5832C16.3121 25.5832 19.2458 24.3476 21.4639 22.3382L17.5952 19.0645C16.298 20.051 14.713 20.5845 13.0833 20.5833C9.83207 20.5833 7.07145 18.5101 6.03145 15.617L1.9552 18.7576C4.02395 22.8057 8.2252 25.5832 13.0833 25.5832Z" fill="#4CAF50"/>
<path d="M25.3402 10.6352H24.3334V10.5833H13.0834V15.5833H20.1477C19.6547 16.9686 18.7667 18.179 17.5934 19.0652L17.5952 19.0639L21.464 22.3377C21.1902 22.5864 25.5834 19.3333 25.5834 13.0833C25.5834 12.2452 25.4971 11.4271 25.3402 10.6352Z" fill="#1976D2"/>
</svg>
