<svg width="26" height="26" viewBox="0 0 26 26" fill="none" xmlns="http://www.w3.org/2000/svg">
<path d="M11.7532 25.4485C9.77278 25.2436 7.87 24.5686 6.2032 23.4797C4.80009 22.5656 4.48291 22.1891 4.48291 21.439C4.48291 19.9312 6.14227 17.289 8.9813 14.278C10.5922 12.567 12.8391 10.5623 13.0813 10.617C13.5531 10.7232 17.3281 14.403 18.7406 16.1343C20.9749 18.8734 22.0031 21.1172 21.4812 22.1172C21.0843 22.8766 18.6218 24.3625 16.814 24.9329C15.3234 25.4032 13.3656 25.6032 11.7532 25.4485ZM2.58761 19.8703C1.42043 18.0827 0.831378 16.3233 0.547005 13.7764C0.453256 12.9342 0.487631 12.4545 0.761066 10.7295C1.10169 8.57789 2.32668 6.08878 3.8001 4.55751C4.42666 3.90593 4.48291 3.89031 5.24696 4.14656C6.17664 4.45907 7.16882 5.14346 8.70474 6.5341L9.60161 7.34506L9.11255 7.94663C6.83757 10.7389 4.4376 14.6967 3.53135 17.1452C3.03917 18.4765 2.84073 19.8125 3.05323 20.3687C3.19542 20.7437 3.06417 20.6031 2.58449 19.8703H2.58761ZM23.0577 20.175C23.1734 19.6125 23.0281 18.5812 22.6859 17.539C21.9468 15.2843 19.475 11.0889 17.2047 8.23726L16.4906 7.3388L17.2625 6.62942C18.2718 5.70284 18.9734 5.14814 19.7312 4.67626C20.3265 4.30594 21.1796 3.97625 21.5453 3.97625C21.7718 3.97625 22.5671 4.80126 23.2093 5.70128C24.23 7.15804 24.9439 8.80708 25.3077 10.5482C25.5468 11.6858 25.5671 14.1202 25.3452 15.2546C25.1369 16.2706 24.8227 17.2619 24.4077 18.2124C24.128 18.8265 23.4327 20.0187 23.1265 20.4062C22.9702 20.6062 22.9687 20.6047 23.0577 20.175ZM11.961 3.54968C10.9141 3.01842 9.29849 2.4481 8.40475 2.29497C8.01247 2.23497 7.61537 2.21247 7.21882 2.22778C6.48289 2.26528 6.5157 2.22778 7.69694 1.6684C8.62306 1.22402 9.60164 0.898519 10.6094 0.699629C11.8594 0.435562 14.2125 0.433999 15.4437 0.691816C16.7719 0.973071 18.339 1.55433 19.2218 2.09809L19.4843 2.25903L18.8828 2.22778C17.6859 2.1684 15.9453 2.64966 14.0734 3.56062C13.5094 3.83562 13.0172 4.05437 12.9813 4.04812C12.6357 3.89234 12.2965 3.72612 11.961 3.54968Z" fill="white"/>
</svg>
