<svg width="52" height="50" viewBox="0 0 52 50" fill="none" xmlns="http://www.w3.org/2000/svg">
<path fill-rule="evenodd" clip-rule="evenodd" d="M17.1632 31.7714H12.0668C11.9717 31.7714 11.8777 31.7901 11.7899 31.8266C11.7022 31.863 11.6225 31.9165 11.5555 31.9838C11.4885 32.051 11.4355 32.1309 11.3995 32.2188C11.3636 32.3065 11.3453 32.4006 11.3459 32.4955V36.1268C11.3456 36.2215 11.3641 36.3154 11.4001 36.4031C11.4362 36.4909 11.4892 36.5705 11.5561 36.6378C11.6231 36.705 11.7026 36.7585 11.7902 36.795C11.8779 36.8315 11.9718 36.8505 12.0668 36.8508H17.1632V39.2833H10.8091C10.5621 39.2835 10.3174 39.2353 10.089 39.141C9.86069 39.0469 9.65319 38.9086 9.47838 38.7344C9.30359 38.56 9.16493 38.353 9.07031 38.1251C8.97569 37.8973 8.927 37.653 8.927 37.4064V31.2245C8.92758 30.9784 8.97671 30.7346 9.07161 30.5075C9.1665 30.2803 9.3053 30.0739 9.48007 29.9003C9.65485 29.7265 9.86217 29.5889 10.0902 29.4953C10.3182 29.4015 10.5625 29.3536 10.8091 29.3543H17.1632V31.7714Z" fill="white"/>
<path fill-rule="evenodd" clip-rule="evenodd" d="M19.0068 25.0244C19.0071 25.2747 18.958 25.5225 18.8621 25.7538C18.7663 25.9852 18.6257 26.1953 18.4485 26.3723C18.2712 26.5493 18.0608 26.6895 17.829 26.7853C17.5974 26.8809 17.3491 26.9299 17.0983 26.9297H8.9148V24.4753H15.8123C15.9087 24.475 16.0041 24.4558 16.093 24.4187C16.1819 24.3815 16.2626 24.3274 16.3306 24.2592C16.3986 24.1909 16.4524 24.1099 16.489 24.0209C16.5257 23.9319 16.5443 23.8365 16.5441 23.7403V15.6247C16.5443 15.5285 16.5257 15.4333 16.489 15.3444C16.4523 15.2555 16.3985 15.1747 16.3305 15.1067C16.2625 15.0385 16.1817 14.9845 16.0928 14.9477C16.0038 14.9108 15.9085 14.8919 15.8123 14.8919H12.1072C12.0109 14.8919 11.9155 14.9108 11.8266 14.9477C11.7377 14.9845 11.6569 15.0385 11.5889 15.1067C11.5209 15.1747 11.4671 15.2555 11.4304 15.3444C11.3938 15.4333 11.3751 15.5285 11.3754 15.6247V19.3172C11.3748 19.4135 11.3933 19.5089 11.4298 19.5982C11.4663 19.6873 11.5201 19.7683 11.5881 19.8367C11.6562 19.9049 11.737 19.9592 11.8261 19.9962C11.9152 20.0332 12.0107 20.0522 12.1072 20.0522H15.0629V22.5065H10.8232C10.5727 22.5068 10.3246 22.4578 10.0931 22.3623C9.86153 22.2668 9.65113 22.1267 9.47389 21.9499C9.29665 21.7732 9.15605 21.5633 9.06011 21.3322C8.96418 21.1012 8.9148 20.8535 8.9148 20.6034V14.3407C8.91451 14.0903 8.96368 13.8424 9.05948 13.6112C9.15529 13.3798 9.29584 13.1697 9.47312 12.9927C9.65038 12.8158 9.86088 12.6754 10.0925 12.5798C10.3242 12.4841 10.5725 12.435 10.8232 12.4353H17.0962C17.347 12.435 17.5954 12.4841 17.8272 12.5797C18.059 12.6753 18.2696 12.8157 18.447 12.9925C18.6246 13.1695 18.7653 13.3797 18.8613 13.6109C18.9574 13.8423 19.0068 14.0902 19.0068 14.3407V25.0244Z" fill="white"/>
<path fill-rule="evenodd" clip-rule="evenodd" d="M43.1079 39.2767H40.6978V31.7714H38.9931C38.8982 31.7716 38.8042 31.7906 38.7166 31.8271C38.629 31.8637 38.5494 31.9171 38.4825 31.9844C38.4156 32.0516 38.3625 32.1314 38.3264 32.219C38.2904 32.3067 38.272 32.4006 38.2722 32.4955V39.2767H35.8401V31.7714H34.1355C34.0405 31.7714 33.9462 31.7901 33.8583 31.8265C33.7705 31.863 33.6906 31.9164 33.6235 31.9836C33.5563 32.0509 33.5031 32.1307 33.4669 32.2185C33.4307 32.3064 33.4122 32.4005 33.4124 32.4955V39.2767H30.9893V31.2245C30.9904 30.7277 31.189 30.2516 31.5415 29.901C31.894 29.5502 32.3715 29.3536 32.8691 29.3542H43.1079V39.2767Z" fill="white"/>
<path fill-rule="evenodd" clip-rule="evenodd" d="M43.1255 25.0244C43.1257 25.2747 43.0765 25.5225 42.9807 25.7538C42.8849 25.9852 42.7443 26.1953 42.567 26.3723C42.3898 26.5493 42.1793 26.6895 41.9477 26.7853C41.716 26.8809 41.4676 26.9299 41.217 26.9297H33.0334V24.4753H39.9309C40.1257 24.4747 40.3124 24.397 40.45 24.2593C40.5876 24.1214 40.6648 23.9349 40.6648 23.7403V15.6247C40.6651 15.5284 40.6463 15.4329 40.6096 15.3439C40.5728 15.2549 40.5187 15.1739 40.4505 15.1059C40.3823 15.0378 40.3012 14.9838 40.2121 14.947C40.123 14.9103 40.0273 14.8915 39.9309 14.8919H36.2258C36.0321 14.893 35.8468 14.9708 35.7104 15.1082C35.5739 15.2455 35.4977 15.4313 35.4983 15.6247V19.3172C35.4978 19.4132 35.5161 19.5083 35.5524 19.5972C35.5886 19.6859 35.6421 19.7668 35.7095 19.835C35.7772 19.9033 35.8575 19.9577 35.9461 19.9949C36.0346 20.0322 36.1297 20.0517 36.2258 20.0522H39.1859V22.5065H34.944C34.6935 22.5068 34.4454 22.4578 34.2139 22.3623C33.9824 22.2668 33.7719 22.1267 33.5947 21.9499C33.4174 21.7732 33.2768 21.5633 33.1809 21.3322C33.085 21.1012 33.0356 20.8535 33.0356 20.6034V14.3407C33.0353 14.0903 33.0844 13.8424 33.1803 13.6112C33.2761 13.3798 33.4167 13.1697 33.5939 12.9927C33.7711 12.8158 33.9817 12.6754 34.2134 12.5798C34.445 12.4841 34.6933 12.435 34.944 12.4353H41.217C41.7229 12.4359 42.2081 12.6368 42.5658 12.994C42.9236 13.3512 43.1248 13.8354 43.1255 14.3407V25.0244Z" fill="white"/>
<path fill-rule="evenodd" clip-rule="evenodd" d="M28.6004 15.6247V19.3172C28.6015 19.413 28.5836 19.5083 28.5478 19.5973C28.5119 19.6863 28.4587 19.7673 28.3912 19.8355C28.3238 19.9039 28.2435 19.9583 28.1549 19.9954C28.0663 20.0327 27.9713 20.0519 27.8752 20.0522H24.1701C24.0737 20.0522 23.9782 20.0332 23.889 19.9962C23.8 19.9592 23.7191 19.9049 23.6511 19.8367C23.583 19.7683 23.5293 19.6873 23.4927 19.5982C23.4562 19.5089 23.4377 19.4135 23.4383 19.3172V15.6247C23.438 15.5285 23.4567 15.4333 23.4934 15.3444C23.5301 15.2555 23.5839 15.1747 23.6519 15.1067C23.7199 15.0385 23.8006 14.9845 23.8895 14.9477C23.9785 14.9108 24.0738 14.8919 24.1701 14.8919H27.8752C27.9711 14.8918 28.0662 14.9109 28.1548 14.9478C28.2433 14.9848 28.3237 15.0388 28.3911 15.107C28.4586 15.1752 28.5118 15.256 28.5477 15.3449C28.5836 15.4338 28.6015 15.5289 28.6004 15.6247ZM29.1592 12.4353H22.884C22.6335 12.4353 22.3853 12.4846 22.1539 12.5804C21.9226 12.6762 21.7124 12.8165 21.5353 12.9935C21.3583 13.1704 21.2179 13.3805 21.1221 13.6117C21.0265 13.8428 20.9774 14.0905 20.9778 14.3407V20.6034C20.9774 20.8534 21.0265 21.101 21.1223 21.332C21.2179 21.563 21.3583 21.773 21.5354 21.9498C21.7125 22.1265 21.9227 22.2667 22.1541 22.3623C22.3856 22.4578 22.6336 22.5068 22.884 22.5065H29.1592C29.6649 22.5065 30.1499 22.3062 30.5078 21.9493C30.8657 21.5924 31.0669 21.1084 31.0675 20.6034V14.3407C31.0669 13.8354 30.8657 13.3512 30.508 12.994C30.1502 12.6368 29.6651 12.4359 29.1592 12.4353Z" fill="white"/>
<path fill-rule="evenodd" clip-rule="evenodd" d="M26.6261 32.4955V36.1311C26.6267 36.2259 26.6085 36.3199 26.5727 36.4076C26.5369 36.4955 26.4841 36.5754 26.4174 36.6428C26.3506 36.7103 26.2712 36.7639 26.1837 36.8008C26.0962 36.8375 26.0023 36.8568 25.9074 36.8574H22.2637C22.1686 36.857 22.0744 36.838 21.9867 36.8014C21.8989 36.7646 21.8193 36.711 21.7523 36.6436C21.6853 36.5761 21.6323 36.4961 21.5964 36.4081C21.5605 36.3203 21.5422 36.226 21.5428 36.1311V32.4955C21.5422 32.4006 21.5605 32.3065 21.5964 32.2188C21.6325 32.1309 21.6854 32.051 21.7524 31.9838C21.8194 31.9164 21.899 31.863 21.9868 31.8266C22.0746 31.7901 22.1687 31.7714 22.2637 31.7714H25.9162C26.1062 31.7743 26.2874 31.852 26.4204 31.9876C26.5533 32.1231 26.6272 32.3058 26.6261 32.4955ZM27.1717 29.3543H20.9819C20.7354 29.3536 20.491 29.4015 20.263 29.4953C20.035 29.5889 19.8277 29.7265 19.6529 29.9003C19.4781 30.0739 19.3394 30.2803 19.2445 30.5075C19.1496 30.7346 19.1004 30.9784 19.0999 31.2245V37.3999C19.0999 37.6465 19.1486 37.8908 19.2431 38.1186C19.3377 38.3465 19.4763 38.5535 19.6512 38.7278C19.826 38.9021 20.0335 39.0403 20.2619 39.1345C20.4901 39.2286 20.7349 39.277 20.9819 39.2768H27.1629C27.6615 39.2768 28.1397 39.079 28.4922 38.727C28.8448 38.375 29.0429 37.8976 29.0429 37.3999V31.2245C29.0411 30.7279 28.8423 30.2521 28.4898 29.9016C28.1375 29.551 27.6604 29.3543 27.1629 29.3543" fill="white"/>
<path d="M46.9995 43.4832C46.9972 44.079 46.7584 44.6497 46.3353 45.0699C45.9122 45.4903 45.3396 45.7259 44.7428 45.7254H7.29761C7.00135 45.7257 6.70792 45.6677 6.43414 45.5547C6.16035 45.4417 5.91154 45.2759 5.70195 45.0668C5.49236 44.8578 5.32609 44.6095 5.21265 44.3363C5.09921 44.063 5.04082 43.7702 5.04082 43.4744V8.21412C5.04198 7.6171 5.28019 7.04492 5.70323 6.62297C6.12627 6.20102 6.69962 5.96375 7.29761 5.96318H44.7428C45.3408 5.96375 45.9141 6.20102 46.3372 6.62297C46.7602 7.04492 46.9984 7.6171 46.9995 8.21412V43.4832ZM46.9995 5.96537C46.7033 5.66978 46.3513 5.43566 45.9639 5.27647C45.5767 5.11728 45.1616 5.03619 44.7428 5.03787H7.29761C6.45341 5.03844 5.64387 5.37305 5.04631 5.9684C4.44877 6.56375 4.11194 7.37129 4.10962 8.21412V43.4832C4.1102 44.3272 4.44627 45.1363 5.044 45.7332C5.64174 46.3299 6.45228 46.6654 7.29761 46.666H44.7428C45.5881 46.6654 46.3986 46.3299 46.9964 45.7332C47.5941 45.1363 47.9301 44.3272 47.9308 43.4832V8.21412C47.9305 7.79628 47.8477 7.3826 47.6872 6.99674C47.5267 6.61088 47.2915 6.2604 46.9952 5.96537" fill="white"/>
</svg>
