<svg width="51" height="14" viewBox="0 0 51 14" fill="none" xmlns="http://www.w3.org/2000/svg">
<g clip-path="url(#clip0_141_1085)">
<mask id="mask0_141_1085" style="mask-type:luminance" maskUnits="userSpaceOnUse" x="0" y="0" width="51" height="14">
<path d="M50.6665 0.0549316H0.666504V13.5315H50.6665V0.0549316Z" fill="white"/>
</mask>
<g mask="url(#mask0_141_1085)">
<path d="M33.9339 0.0549316V9.84038C35.1409 9.89653 36.3447 9.9644 37.5452 10.0445V12.1192C35.6412 11.9922 33.7353 11.8959 31.8282 11.8302V0.0549316H33.9339ZM50.6666 0.0561035L47.9247 6.41294L50.6659 13.487L50.6629 13.4882C49.8637 13.3746 49.0637 13.2664 48.2629 13.1637L46.7235 9.19341L45.1695 12.7952C44.4323 12.7137 43.6946 12.6369 42.9564 12.5647L45.6294 6.37036L43.1814 0.0562012H45.4593L46.8299 3.58979L48.3539 0.0561035H50.6666ZM24.6015 11.7274V0.0560059H30.4794V2.14937H26.7071V4.86226H29.5613V6.93696H26.7071V11.727L24.6015 11.7274ZM16.7389 2.14946V0.0559082H23.2516V2.14937H21.0479V11.7841C20.3451 11.8027 19.6431 11.8244 18.9425 11.8508V2.14946H16.7389ZM9.54043 12.454V0.0562988H15.3891V2.14956H11.6458V4.98511C12.5058 4.97407 13.7285 4.96167 14.4893 4.96343V7.03833C13.537 7.02661 12.4621 7.05142 11.6458 7.05952V10.2005C12.8927 10.1023 14.1404 10.017 15.3891 9.94468V12.0196C13.4373 12.1322 11.4874 12.2771 9.54043 12.4542M5.40986 7.65786L5.40976 0.0559082H7.51543V12.6497C6.7457 12.7288 5.97734 12.813 5.21045 12.902L2.77207 5.89712V13.202C2.06966 13.2934 1.36779 13.389 0.666504 13.4887V0.0561035H2.66758L5.40986 7.65786ZM39.2823 12.2443V0.0561035H41.3881V12.4182C40.687 12.3557 39.9853 12.298 39.2823 12.2443Z" fill="white"/>
</g>
</g>
<defs>
<clipPath id="clip0_141_1085">
<rect width="50" height="13.4766" fill="white" transform="translate(0.666504 0.0549316)"/>
</clipPath>
</defs>
</svg>
