<svg width="41" height="40" viewBox="0 0 41 40" fill="none" xmlns="http://www.w3.org/2000/svg">
<path fill-rule="evenodd" clip-rule="evenodd" d="M21.5671 13.8082C21.5671 10.1395 21.5671 6.47058 21.5671 2.80143C21.5671 2.48678 21.5712 2.48264 21.8942 2.48264C23.0341 2.48264 24.1713 2.46677 25.314 2.48264C26.646 2.49995 27.9314 2.97554 28.9539 3.82937C29.9763 4.68321 30.6735 5.86317 30.9281 7.17073C31.0082 7.59573 31.0489 8.02723 31.0496 8.45972C31.0588 12.0714 31.0604 15.6825 31.0544 19.2933C31.0607 20.062 30.9148 20.8245 30.6253 21.5367C30.3358 22.2489 29.9083 22.8968 29.3674 23.4432C28.8265 23.9895 28.1829 24.4235 27.4736 24.7201C26.7644 25.0168 26.0034 25.1702 25.2346 25.1717C24.1375 25.1793 23.0403 25.1717 21.9432 25.1717C21.5664 25.1717 21.5664 25.1717 21.5664 24.7859L21.5671 13.8082ZM26.0813 12.6827C24.8068 12.6531 23.7904 13.7226 23.7738 14.926C23.7566 16.175 24.7758 17.1783 25.9178 17.2418C27.2882 17.3184 28.3384 16.1978 28.3384 14.9943C28.3391 13.7199 27.3655 12.7055 26.0813 12.6827Z" fill="white"/>
<path fill-rule="evenodd" clip-rule="evenodd" d="M19.3002 13.8343V24.8638C19.3002 25.1509 19.2698 25.1806 18.9835 25.1799H14.3016C12.7048 25.1799 11.3068 24.6561 10.1469 23.5562C9.29584 22.7572 8.71545 21.7124 8.48666 20.5677C8.41017 20.2277 8.36787 19.881 8.36039 19.5326C8.35211 15.734 8.30242 11.9347 8.37419 8.13808C8.41973 5.76092 9.6404 4.03583 11.7905 3.00078C12.5813 2.6185 13.4321 2.47842 14.3099 2.48049C15.8631 2.48463 17.415 2.48049 18.9704 2.48049C19.2919 2.48049 19.3023 2.49153 19.3023 2.82551L19.3002 13.8343ZM17.4488 23.3271V4.31874H17.2011C16.2468 4.31874 15.2918 4.31184 14.3375 4.32288C14.0184 4.32479 13.7002 4.35341 13.3859 4.40845C11.5918 4.73207 10.1959 6.41369 10.1952 8.23469C10.1952 11.9747 10.1835 15.7153 10.2014 19.4553C10.2062 20.5718 10.6672 21.5185 11.4862 22.2803C12.2736 23.0118 13.2182 23.3347 14.2809 23.3389C15.2711 23.343 16.2613 23.3389 17.2515 23.3389C17.3108 23.3389 17.3798 23.332 17.4488 23.3271Z" fill="white"/>
<path fill-rule="evenodd" clip-rule="evenodd" d="M8.30665 32.8823C8.6772 32.8823 9.02498 32.8761 9.37275 32.8892C9.41899 32.8892 9.48523 32.9817 9.50179 33.0424C9.82542 34.2438 10.1421 35.4465 10.4768 36.7093C10.5362 36.5326 10.5824 36.4077 10.6196 36.2801C10.9329 35.2091 11.2483 34.141 11.5519 33.0645C11.5933 32.9189 11.6492 32.8672 11.7968 32.8782C11.9746 32.892 12.1532 32.892 12.3309 32.8782C12.5021 32.863 12.58 32.9244 12.6276 33.0907C12.9506 34.2189 13.2825 35.3451 13.6116 36.4719C13.631 36.5409 13.653 36.6044 13.6903 36.7231C13.7724 36.4326 13.8435 36.1918 13.9084 35.9496C14.1678 34.9725 14.4231 33.9947 14.6874 33.019C14.6996 32.9872 14.7193 32.9589 14.7447 32.9363C14.7702 32.9137 14.8007 32.8976 14.8337 32.8892C15.1746 32.8775 15.5154 32.883 15.8894 32.883C15.8204 33.1377 15.7611 33.373 15.6949 33.6062C15.2719 35.0946 14.8447 36.5816 14.4259 38.0707C14.3859 38.2122 14.3231 38.2619 14.1768 38.257C13.8782 38.246 13.5792 38.246 13.2797 38.257C13.1259 38.2619 13.0555 38.2122 13.0134 38.059C12.7222 37.0019 12.422 35.9475 12.1246 34.8924L12.086 34.762C11.988 35.0987 11.9017 35.3885 11.8189 35.6791C11.594 36.4747 11.367 37.2703 11.1489 38.068C11.1103 38.206 11.0523 38.2639 10.9012 38.2577C10.5879 38.2453 10.2739 38.2522 9.96066 38.2577C9.8613 38.2577 9.79644 38.2494 9.76193 38.1252C9.28443 36.4231 8.80302 34.7238 8.31769 33.0273C8.3101 32.9793 8.30641 32.9309 8.30665 32.8823Z" fill="white"/>
<path fill-rule="evenodd" clip-rule="evenodd" d="M32.6235 32.8792C32.6235 33.5237 32.6291 34.1344 32.6235 34.7423C32.6201 34.9273 32.658 35.0046 32.8671 34.9997C33.5305 34.9859 34.1931 34.9859 34.8551 34.9997C35.0683 35.0039 35.1208 34.9307 35.1159 34.7299C35.1028 34.1882 35.1077 33.6466 35.107 33.1056C35.107 33.0366 35.1152 32.9676 35.1194 32.8868H36.2124V38.2312H35.1083V36.1341H32.6366V38.2436C32.2689 38.2436 31.9238 38.2491 31.5802 38.2346C31.5478 38.2346 31.4967 38.1056 31.496 38.0359C31.4905 37.2382 31.4926 36.4398 31.4926 35.6421C31.4926 34.7865 31.496 33.9315 31.4926 33.0766C31.4926 32.9324 31.5278 32.8696 31.6816 32.8765C31.9832 32.8861 32.2882 32.8792 32.6235 32.8792Z" fill="white"/>
<path fill-rule="evenodd" clip-rule="evenodd" d="M2.75 37.8079L3.23302 36.944C3.5946 37.0682 3.92858 37.2069 4.27567 37.2973C4.8536 37.4579 5.46489 37.4541 6.04077 37.2863C6.14968 37.2559 6.25212 37.2058 6.34301 37.1386C6.70942 36.8495 6.66043 36.432 6.22156 36.2816C5.8437 36.1635 5.45823 36.0713 5.06783 36.0056C4.47785 35.891 3.8789 35.8048 3.35999 35.4708C3.20072 35.3698 3.06679 35.2336 2.96853 35.0727C2.87028 34.9117 2.81033 34.7304 2.79333 34.5426C2.77632 34.3548 2.80271 34.1656 2.87045 33.9896C2.9382 33.8136 3.04549 33.6556 3.18403 33.5276C3.75607 32.9832 4.46474 32.8314 5.22308 32.8273C5.89035 32.8224 6.52863 32.9763 7.15518 33.1888C7.19016 33.2059 7.22304 33.227 7.25317 33.2516L6.89021 34.1383C6.49344 34.0355 6.11737 33.9037 5.73026 33.8478C5.25414 33.7788 4.76421 33.7567 4.3012 33.943C4.1142 34.0176 3.96032 34.1273 3.95273 34.3522C3.94514 34.5772 4.10592 34.7097 4.2943 34.7607C4.72212 34.8774 5.16098 34.9519 5.58949 35.0664C6.0213 35.1727 6.44642 35.3045 6.86261 35.4611C7.38634 35.6681 7.69617 36.0628 7.6941 36.6556C7.69203 37.2483 7.45879 37.7244 6.92195 38.0267C6.48447 38.2737 6.00144 38.3496 5.51497 38.3862C4.61213 38.4536 3.70716 38.2872 2.88732 37.9032C2.85556 37.8881 2.82469 37.8713 2.79485 37.8528C2.7782 37.8396 2.76314 37.8246 2.75 37.8079Z" fill="white"/>
<path fill-rule="evenodd" clip-rule="evenodd" d="M30.2804 33.9929L29.4164 34.743C29.0631 34.2068 28.5684 33.9149 27.9391 33.9149C27.7178 33.9118 27.4982 33.9541 27.2938 34.039C27.0895 34.124 26.9047 34.2499 26.7508 34.409C26.0884 35.0756 26.0808 36.0582 26.7508 36.7323C26.9299 36.9217 27.1525 37.0646 27.3991 37.1487C27.6458 37.2329 27.9093 37.2558 28.1668 37.2154C28.7009 37.1415 29.1107 36.8607 29.4157 36.4032L30.2666 37.1408C29.8601 37.9468 28.6843 38.5409 27.6444 38.4202C26.1505 38.2476 25.2017 37.1188 25.0796 35.8974C24.9416 34.4911 25.7606 33.2518 27.0565 32.8467C28.2655 32.4686 29.6773 32.9634 30.2804 33.9929Z" fill="white"/>
<path fill-rule="evenodd" clip-rule="evenodd" d="M22.5811 38.2426H21.4115V34.0334H19.7051V32.8955H24.2214V34.0258H22.5811V38.2426Z" fill="white"/>
<path fill-rule="evenodd" clip-rule="evenodd" d="M18.3869 38.255H17.4277C17.3649 38.255 17.3021 38.2488 17.2207 38.2447V32.8955H18.3841L18.3869 38.255Z" fill="white"/>
<path fill-rule="evenodd" clip-rule="evenodd" d="M33.4062 30.0384C33.3641 29.2848 34.021 28.5203 34.9119 28.5244C35.7516 28.5313 36.4299 29.1655 36.4251 30.0425C36.4251 30.9658 35.6916 31.5564 34.907 31.5606C34.7079 31.5613 34.5107 31.5222 34.3269 31.4457C34.1431 31.3691 33.9765 31.2567 33.8367 31.1149C33.6969 30.9731 33.5868 30.8049 33.5129 30.62C33.439 30.4352 33.4027 30.2374 33.4062 30.0384ZM34.9022 29.1641C34.6698 29.1674 34.4482 29.2629 34.2862 29.4296C34.1242 29.5962 34.035 29.8204 34.0383 30.0529C34.0416 30.2853 34.1371 30.5069 34.3037 30.6689C34.4704 30.8309 34.6946 30.9201 34.927 30.9168C35.0421 30.9152 35.1558 30.8909 35.2615 30.8453C35.3672 30.7998 35.4629 30.7339 35.5431 30.6513C35.6233 30.5688 35.6865 30.4713 35.729 30.3643C35.7716 30.2574 35.7926 30.1431 35.791 30.028C35.7893 29.9129 35.7651 29.7993 35.7195 29.6936C35.674 29.5879 35.608 29.4922 35.5255 29.412C35.443 29.3318 35.3455 29.2686 35.2385 29.226C35.1316 29.1835 35.0173 29.1625 34.9022 29.1641Z" fill="white"/>
<path fill-rule="evenodd" clip-rule="evenodd" d="M25.9705 30.4514V28.6131C26.1338 28.6046 26.2975 28.6076 26.4604 28.6221C26.5032 28.6283 26.5591 28.7429 26.5598 28.8091C26.5667 29.535 26.5639 30.2582 26.5639 30.9875V31.4671C26.3824 31.4671 26.2141 31.4782 26.0492 31.4616C25.994 31.4554 25.9353 31.3871 25.896 31.3346C25.475 30.7736 25.0583 30.2099 24.6008 29.5951V31.4581H24.0156V28.6124C24.1868 28.6124 24.3551 28.6042 24.5221 28.6173C24.5725 28.6214 24.627 28.6801 24.6601 28.727C25.0424 29.2293 25.4192 29.7344 25.8007 30.2389C25.8442 30.2947 25.8891 30.3486 25.9705 30.4514Z" fill="white"/>
<path fill-rule="evenodd" clip-rule="evenodd" d="M10.4161 28.6135C10.5861 28.6049 10.7564 28.6072 10.9261 28.6204C11.0046 28.6452 11.0721 28.6964 11.1172 28.7653C11.5043 29.2739 11.8859 29.7872 12.2689 30.2986C12.2923 30.3296 12.3179 30.3593 12.3827 30.4366V29.0047C12.3827 28.6087 12.3827 28.6087 12.7747 28.61H12.9561V31.4537C12.6801 31.4633 12.4207 31.5399 12.2116 31.2135C11.899 30.7243 11.5264 30.2737 11.1765 29.8072C11.1345 29.7507 11.0896 29.6968 11.0116 29.6002V31.4288C10.9751 31.4516 10.9633 31.464 10.9516 31.4647C10.4141 31.4937 10.4141 31.4937 10.4141 30.9582L10.4161 28.6135Z" fill="white"/>
<path fill-rule="evenodd" clip-rule="evenodd" d="M4.93063 28.6144H5.51233V31.4608C5.38545 31.47 5.258 31.4682 5.13143 31.4553C5.03314 31.4417 4.94224 31.3956 4.87336 31.3241C4.48418 30.817 4.10742 30.3008 3.72583 29.7881C3.68512 29.7329 3.63889 29.6819 3.56368 29.5915V31.4249C3.53124 31.4421 3.51951 31.4539 3.50709 31.4546C2.97025 31.4829 2.97025 31.4829 2.97025 30.9515C2.97025 30.2394 2.97508 29.528 2.9668 28.8166C2.9668 28.6475 3.01924 28.6096 3.18416 28.5971C3.45534 28.5744 3.62578 28.6661 3.78104 28.8883C4.1157 29.3713 4.48142 29.8364 4.83472 30.3084C4.85404 30.3339 4.87819 30.3567 4.93063 30.4147V28.6144Z" fill="white"/>
<path fill-rule="evenodd" clip-rule="evenodd" d="M28.9414 31.4231V28.6029C29.2609 28.6029 29.5714 28.5933 29.8805 28.6029C30.1066 28.6035 30.3319 28.6301 30.5519 28.6823C31.233 28.8734 31.6222 29.4641 31.5697 30.1859C31.5395 30.4965 31.4039 30.7875 31.1853 31.0103C30.9667 31.2332 30.6784 31.3745 30.3684 31.4107C29.9061 31.4638 29.4341 31.4231 28.9414 31.4231ZM29.5231 30.0078C29.5231 30.2286 29.5231 30.4495 29.5231 30.6703C29.5231 30.7827 29.5562 30.8455 29.6818 30.84C29.8736 30.8324 30.0669 30.8442 30.2573 30.8255C30.4502 30.8019 30.6284 30.71 30.7595 30.5665C30.8906 30.423 30.966 30.2373 30.9722 30.043C30.9818 29.6635 30.6713 29.284 30.2918 29.2364C30.0951 29.2115 29.8943 29.2205 29.6956 29.2074C29.5576 29.1984 29.5238 29.264 29.5266 29.3868C29.5293 29.5945 29.5231 29.8015 29.5231 30.0078Z" fill="white"/>
<path fill-rule="evenodd" clip-rule="evenodd" d="M20.0771 29.1488C20.0516 29.1854 20.0447 29.1902 20.044 29.1964C19.9819 29.7484 19.9819 29.7484 20.5401 29.7484H21.5365V30.2591H20.0475V30.9022H21.6456V31.4473H19.4727V28.6182H21.6663C21.6721 28.7682 21.6693 28.9184 21.658 29.0681C21.658 29.1005 21.5545 29.144 21.4986 29.1447C21.0998 29.1516 20.7009 29.1488 20.3028 29.1488H20.0771Z" fill="white"/>
<path fill-rule="evenodd" clip-rule="evenodd" d="M15.8858 29.2247H14.9922V28.6182H17.3666V29.2213H16.5158V31.4452H15.8858V29.2247Z" fill="white"/>
<path fill-rule="evenodd" clip-rule="evenodd" d="M7.6875 28.6133H8.29335V31.4424H7.6875V28.6133Z" fill="white"/>
<path fill-rule="evenodd" clip-rule="evenodd" d="M37.9046 37.8593C37.8796 37.9445 37.8487 38.028 37.8122 38.109C37.7784 38.1561 37.7382 38.1981 37.6928 38.2339C37.6572 38.1973 37.6255 38.1571 37.5982 38.1139C37.5624 38.0387 37.5375 37.9579 37.4975 37.8524L37.4333 38.2471L37.3574 38.2339V37.5688C37.4602 37.5549 37.4602 37.555 37.7024 37.971C37.8342 37.851 37.7225 37.5246 38.0475 37.5508C38.1075 37.9807 38.0833 38.176 37.9488 38.236V37.8731L37.9046 37.8593Z" fill="white"/>
<path fill-rule="evenodd" clip-rule="evenodd" d="M36.8759 37.7103C36.8351 37.7122 36.7943 37.7074 36.7551 37.6958C36.7214 37.6714 36.6908 37.6429 36.6641 37.6109C36.7006 37.5868 36.7331 37.5461 36.7724 37.5419C36.8851 37.5323 36.9985 37.5323 37.1112 37.5419C37.1574 37.5454 37.2002 37.5861 37.2451 37.6109C37.2089 37.6427 37.1704 37.6718 37.1298 37.6979C37.0969 37.7091 37.0625 37.7153 37.0277 37.7165C37.0332 37.8384 37.032 37.9605 37.0243 38.0822C37.0061 38.1414 36.9781 38.1972 36.9415 38.2471C36.9127 38.1994 36.8915 38.1475 36.8787 38.0932C36.869 37.9732 36.8759 37.8531 36.8759 37.7103Z" fill="white"/>
<path fill-rule="evenodd" clip-rule="evenodd" d="M11.8993 9.28633C11.8655 8.18228 12.7964 7.15896 14.0184 7.1631C15.2122 7.16724 16.1706 8.06428 16.1631 9.33464C16.1555 10.605 15.0942 11.4613 13.9943 11.4344C12.8095 11.402 11.8917 10.4794 11.8993 9.28633Z" fill="white"/>
</svg>
