<svg width="51" height="50" viewBox="0 0 51 50" fill="none" xmlns="http://www.w3.org/2000/svg">
<mask id="mask0_141_1011" style="mask-type:luminance" maskUnits="userSpaceOnUse" x="2" y="7" width="48" height="37">
<path d="M49.104 7.61353H2.229V43.8352H49.104V7.61353Z" fill="white"/>
</mask>
<g mask="url(#mask0_141_1011)">
<path d="M9.91857 36.8893C11.055 37.2628 13.0997 37.1573 14.495 36.6565L18.273 35.2811V39.2358L17.5226 39.3632C13.5769 40.0091 9.53367 39.6911 5.73698 38.4361C2.03805 37.3902 1.42376 35.224 3.10429 33.9672C4.66635 32.8115 7.3122 31.9458 7.3122 31.9458L18.2818 28.0481V32.4863L10.3837 35.3118C9.00152 35.8347 8.80845 36.5246 9.91857 36.8893Z" fill="white"/>
<path d="M48.6855 35.3438C47.7684 36.5039 45.5263 37.33 45.5263 37.33L28.8525 43.3325V38.9163L41.1384 34.522C42.5294 34.0211 42.7488 33.3136 41.6123 32.9445C40.4759 32.5754 38.4355 32.6809 37.0403 33.1774L28.8569 36.0688V31.4725L29.3264 31.3143C31.1808 30.714 33.0924 30.309 35.0307 30.1059C38.6128 29.7345 42.2327 30.1669 45.6272 31.3714C49.1769 32.5095 49.6157 34.1925 48.6855 35.3438Z" fill="white"/>
<path d="M30.4265 27.8006V16.4987C30.4265 15.1804 30.1807 13.9501 28.9346 13.6028C27.9825 13.2909 27.3901 14.1829 27.3901 15.5099V43.8571L19.751 41.4271V7.61353C23.3154 8.36563 26.8319 9.32966 30.2817 10.5005C36.7494 12.7241 38.9389 15.4924 38.9389 21.7234C38.9301 27.8006 35.1872 30.1208 30.4265 27.8006Z" fill="white"/>
</g>
</svg>
