<svg width="52" height="50" viewBox="0 0 52 50" fill="none" xmlns="http://www.w3.org/2000/svg">
<path d="M17.3635 37.6697L14.5928 36.5197C14.9976 37.3553 15.6374 38.0554 16.4342 38.5348C17.231 39.014 18.1504 39.2518 19.0802 39.2192C20.0103 39.1864 20.9106 38.8847 21.6715 38.3505C22.4324 37.8164 23.0211 37.073 23.366 36.211C23.7106 35.3492 23.7965 34.4057 23.613 33.4959C23.4296 32.5862 22.9847 31.7492 22.3325 31.0872C21.6805 30.4252 20.8494 29.9667 19.9405 29.7674C19.0317 29.5683 18.0844 29.637 17.2141 29.9655L20.0774 31.1572C20.9424 31.516 21.6293 32.203 21.9865 33.0669C22.3438 33.9308 22.3423 34.9009 21.9825 35.7637C21.6225 36.6265 20.9338 37.3114 20.0675 37.6678C19.2013 38.024 18.2286 38.0225 17.3635 37.6637V37.6697ZM25.7978 3.45093C20.1143 3.45078 14.6433 5.60486 10.4926 9.47691C6.34197 13.3489 3.82202 18.6495 3.44312 24.305L3.45208 24.3214L15.4904 29.2639C15.8201 29.0465 16.1703 28.8619 16.536 28.7128C17.3662 28.3688 18.262 28.2107 19.1603 28.2495L24.6433 20.307C24.6433 20.2728 24.6433 20.234 24.6433 20.1968C24.6459 18.518 25.1475 16.8778 26.0846 15.4833C27.0216 14.0888 28.3522 13.0027 29.9081 12.3621C31.464 11.7215 33.1753 11.5553 34.8259 11.8844C36.4765 12.2135 37.9922 13.0232 39.1815 14.2112C40.3707 15.3992 41.1802 16.912 41.5077 18.5587C41.8351 20.2054 41.6657 21.9119 41.0209 23.4625C40.3762 25.0132 39.2849 26.3384 37.8851 27.2708C36.4855 28.2032 34.84 28.7008 33.1567 28.7008H32.964L25.1167 34.2853C25.1597 35.8255 24.6255 37.3265 23.6184 38.4952C22.6114 39.6637 21.2036 40.4159 19.6702 40.6048C18.1368 40.7937 16.5878 40.4058 15.3259 39.5168C14.0639 38.6279 13.1794 37.3017 12.8453 35.7972L4.36317 32.3072C5.57251 36.2654 7.86027 39.8112 10.9715 42.5489C14.0826 45.2867 17.8951 47.109 21.9837 47.8128C26.0725 48.5167 30.2768 48.0743 34.1282 46.535C37.9797 44.9958 41.3269 42.4202 43.7966 39.095C46.2665 35.77 47.7619 31.8264 48.1164 27.7035C48.471 23.5807 47.6704 19.4405 45.8043 15.7448C43.938 12.049 41.0793 8.94264 37.5469 6.77195C34.0144 4.60128 29.9469 3.45155 25.7978 3.45093ZM38.8249 20.1983C38.8249 19.0788 38.4921 17.9844 37.8685 17.0535C37.2447 16.1227 36.3584 15.3972 35.3212 14.9688C34.2842 14.5403 33.143 14.4283 32.042 14.6467C30.941 14.865 29.9297 15.4042 29.1359 16.1958C28.3423 16.9874 27.8017 17.996 27.5827 19.094C27.3637 20.192 27.4761 21.3302 27.9057 22.3644C28.3353 23.3988 29.0627 24.2828 29.9961 24.9048C30.9294 25.5268 32.0268 25.8587 33.1493 25.8587C34.6545 25.8587 36.0983 25.2624 37.1626 24.2008C38.227 23.1393 38.8249 21.6995 38.8249 20.1983ZM28.9059 20.1894C28.9077 19.3498 29.159 18.5297 29.628 17.8324C30.097 17.1352 30.7626 16.5923 31.5409 16.2722C32.3191 15.9522 33.175 15.8693 34.0005 16.0342C34.8259 16.199 35.5838 16.6043 36.1784 17.1985C36.7731 17.7928 37.1777 18.5495 37.3413 19.373C37.5049 20.1967 37.42 21.05 37.0975 21.8255C36.7748 22.601 36.2291 23.2638 35.5291 23.73C34.8289 24.1963 34.0061 24.4452 33.1642 24.4452C32.0338 24.4435 30.9503 23.9944 30.1517 23.1963C29.3533 22.3983 28.9052 21.3168 28.9059 20.1894Z" fill="white"/>
</svg>
