<svg width="51" height="50" viewBox="0 0 51 50" fill="none" xmlns="http://www.w3.org/2000/svg">
<path d="M38.4086 12.602L38.4268 12.6179C41.6921 15.819 43.6715 20.092 43.9948 24.6378C44.3181 29.1834 42.9631 33.6904 40.1833 37.3158C40.1726 37.3318 40.1566 37.3438 40.1381 37.3495C40.1196 37.3553 40.0996 37.3545 40.0816 37.3474C40.067 37.3365 40.0569 37.3208 40.053 37.3032C40.049 37.2854 40.0517 37.2669 40.0605 37.251C41.5008 32.8309 34.1475 22.116 30.3435 17.6282C30.3283 17.6134 30.3185 17.5942 30.3155 17.5733C30.3167 17.5612 30.3206 17.5495 30.3268 17.539C30.3328 17.5285 30.3411 17.5194 30.3511 17.5123C36.7439 11.191 38.4488 12.6374 38.4268 12.6217L38.4086 12.602ZM11.9215 12.6058L11.9041 12.6217C8.64002 15.8235 6.66159 20.0965 6.33862 24.6419C6.01563 29.1873 7.3702 33.6939 10.1491 37.3195C10.1597 37.3357 10.1756 37.3478 10.1942 37.3535C10.2127 37.3593 10.2327 37.3584 10.2507 37.3512C10.2647 37.3399 10.2745 37.3242 10.2785 37.3068C10.2825 37.2893 10.2805 37.2709 10.2727 37.2548C8.83236 32.8348 16.1856 22.1145 19.9814 17.6222C19.9966 17.608 20.0064 17.5892 20.0093 17.5688C20.0087 17.5562 20.0052 17.5439 19.999 17.533C19.9929 17.522 19.9842 17.5127 19.9737 17.5055C13.5786 11.1857 11.8844 12.6404 11.9056 12.6209L11.9215 12.6058ZM25.1651 7.21069C21.3565 7.21069 18.2226 8.24756 15.3336 9.95457C15.317 9.96236 15.3042 9.97637 15.298 9.99353C15.2918 10.0107 15.2927 10.0296 15.3007 10.0461C15.3085 10.0625 15.3225 10.0752 15.3398 10.0814C15.3572 10.0875 15.3762 10.0866 15.3928 10.0788C19.0466 9.29419 24.6018 12.4304 25.1256 12.7444C25.137 12.7533 25.1506 12.7588 25.1651 12.7602C25.1803 12.7595 25.1949 12.7539 25.2068 12.7444C26.6001 11.95 31.7345 9.27613 34.9678 10.0984C34.9845 10.1062 35.0038 10.107 35.0211 10.1007C35.0385 10.0944 35.0527 10.0816 35.0606 10.0649C35.0684 10.0482 35.0693 10.0291 35.0629 10.0118C35.0566 9.99452 35.0437 9.98043 35.0268 9.97263C32.137 8.24756 28.9623 7.21069 25.1651 7.21069ZM25.1651 22.2478C25.1428 22.2513 25.1222 22.2615 25.106 22.2772C19.4576 26.5435 9.79283 37.0898 12.7417 40.0724H12.7372C16.1763 43.0625 20.5914 44.7107 25.1621 44.7107C29.7326 44.7107 34.1477 43.0625 37.5869 40.0724C40.5328 37.0898 30.8672 26.5435 25.225 22.2772C25.2063 22.2613 25.1834 22.2512 25.1589 22.2478" fill="white"/>
</svg>
