<svg width="52" height="50" viewBox="0 0 52 50" fill="none" xmlns="http://www.w3.org/2000/svg">
<path fill-rule="evenodd" clip-rule="evenodd" d="M27.3361 17.2688C27.3361 12.6829 27.3361 8.09677 27.3361 3.51033C27.3361 3.11702 27.3412 3.11184 27.7456 3.11184C29.1728 3.11184 30.5966 3.09201 32.0273 3.11184C33.695 3.13348 35.3044 3.72797 36.5846 4.79526C37.8647 5.86256 38.7376 7.33751 39.0564 8.97196C39.1566 9.50321 39.2076 10.0426 39.2085 10.5832C39.22 15.0978 39.222 19.6117 39.2145 24.1252C39.2224 25.086 39.0397 26.0392 38.6772 26.9294C38.3148 27.8197 37.7795 28.6295 37.1023 29.3125C36.4251 29.9954 35.6193 30.5379 34.7312 30.9087C33.8433 31.2795 32.8905 31.4713 31.9279 31.4732C30.5543 31.4827 29.1806 31.4732 27.807 31.4732C27.3352 31.4732 27.3352 31.4732 27.3352 30.9909L27.3361 17.2688ZM32.988 15.8619C31.3923 15.8249 30.1197 17.1618 30.0989 18.666C30.0774 20.2273 31.3535 21.4814 32.7833 21.5608C34.4991 21.6565 35.814 20.2558 35.814 18.7514C35.8148 17.1584 34.5959 15.8904 32.988 15.8619Z" fill="white"/>
<path fill-rule="evenodd" clip-rule="evenodd" d="M24.4976 17.3014V31.0883C24.4976 31.4472 24.4596 31.4843 24.1011 31.4834H18.2392C16.24 31.4834 14.4896 30.8287 13.0374 29.4538C11.9718 28.455 11.2452 27.149 10.9587 25.7182C10.863 25.2932 10.81 24.8598 10.8006 24.4243C10.7903 19.676 10.7281 14.9269 10.8179 10.1811C10.8749 7.2097 12.4032 5.05333 15.0952 3.75952C16.0854 3.28167 17.1506 3.10657 18.2496 3.10916C20.1943 3.11433 22.1373 3.10916 24.0847 3.10916C24.4872 3.10916 24.5003 3.12296 24.5003 3.54043L24.4976 17.3014ZM22.1796 29.1674V5.40697H21.8695C20.6747 5.40697 19.479 5.39835 18.2842 5.41215C17.8846 5.41453 17.4862 5.45031 17.0927 5.51911C14.8465 5.92363 13.0988 8.02566 13.0979 10.3019C13.0979 14.9769 13.0832 19.6527 13.1056 24.3277C13.1116 25.7233 13.6888 26.9067 14.7143 27.8589C15.7001 28.7733 16.8828 29.1769 18.2133 29.1822C19.4531 29.1873 20.6928 29.1822 21.9326 29.1822C22.0068 29.1822 22.0932 29.1735 22.1796 29.1674Z" fill="white"/>
<path fill-rule="evenodd" clip-rule="evenodd" d="M10.7334 41.1114C11.1974 41.1114 11.6328 41.1037 12.0682 41.1201C12.1261 41.1201 12.209 41.2357 12.2298 41.3116C12.635 42.8133 13.0315 44.3167 13.4505 45.8952C13.5249 45.6743 13.5827 45.5182 13.6293 45.3587C14.0216 44.0199 14.4165 42.6848 14.7966 41.3392C14.8484 41.1572 14.9184 41.0926 15.1032 41.1063C15.3258 41.1236 15.5494 41.1236 15.7719 41.1063C15.9863 41.0873 16.0838 41.1641 16.1434 41.3719C16.5478 42.7822 16.9633 44.1899 17.3754 45.5984C17.3997 45.6847 17.4272 45.7641 17.4739 45.9124C17.5767 45.5493 17.6657 45.2483 17.747 44.9456C18.0718 43.7242 18.3914 42.5019 18.7223 41.2823C18.7376 41.2426 18.7623 41.2072 18.7941 41.1789C18.826 41.1507 18.8642 41.1306 18.9055 41.1201C19.3323 41.1054 19.759 41.1123 20.2273 41.1123C20.1409 41.4307 20.0666 41.7248 19.9837 42.0163C19.4541 43.8768 18.9193 45.7356 18.3949 47.5969C18.3448 47.7738 18.2662 47.8359 18.083 47.8298C17.7092 47.8161 17.3348 47.8161 16.9598 47.8298C16.7673 47.8359 16.6791 47.7738 16.6264 47.5823C16.2618 46.2609 15.886 44.9429 15.5136 43.6241L15.4653 43.4611C15.3426 43.8819 15.2345 44.2442 15.1309 44.6074C14.8493 45.6019 14.5651 46.5964 14.292 47.5936C14.2437 47.7661 14.1711 47.8384 13.9819 47.8307C13.5896 47.8152 13.1965 47.8238 12.8043 47.8307C12.6799 47.8307 12.5987 47.8203 12.5555 47.6651C11.9576 45.5374 11.3549 43.4133 10.7472 41.2927C10.7377 41.2327 10.7331 41.1722 10.7334 41.1114Z" fill="white"/>
<path fill-rule="evenodd" clip-rule="evenodd" d="M41.1789 41.1075C41.1789 41.9132 41.1859 42.6765 41.1789 43.4364C41.1746 43.6677 41.2221 43.7643 41.4839 43.7582C42.3145 43.7409 43.1441 43.7409 43.9729 43.7582C44.2398 43.7634 44.3056 43.6719 44.2994 43.4209C44.283 42.7438 44.2892 42.0668 44.2883 41.3905C44.2883 41.3043 44.2986 41.218 44.3038 41.117H45.6723V47.7975H44.2899V45.1762H41.1953V47.813C40.7349 47.813 40.3028 47.8199 39.8726 47.8018C39.8321 47.8018 39.7681 47.6405 39.7672 47.5534C39.7603 46.5563 39.7629 45.5583 39.7629 44.5612C39.7629 43.4917 39.7672 42.4229 39.7629 41.3543C39.7629 41.174 39.807 41.0955 39.9996 41.1042C40.3772 41.1162 40.7591 41.1075 41.1789 41.1075Z" fill="white"/>
<path fill-rule="evenodd" clip-rule="evenodd" d="M3.77637 47.2684L4.38112 46.1885C4.83383 46.3437 5.25199 46.5171 5.68656 46.6301C6.41014 46.8309 7.1755 46.8261 7.89652 46.6164C8.03288 46.5784 8.16113 46.5157 8.27493 46.4317C8.73369 46.0704 8.67235 45.5485 8.12287 45.3605C7.64978 45.2129 7.16716 45.0976 6.67837 45.0155C5.93969 44.8722 5.18979 44.7645 4.54009 44.347C4.34068 44.2207 4.173 44.0505 4.04997 43.8494C3.92696 43.6481 3.8519 43.4215 3.83062 43.1867C3.80932 42.952 3.84236 42.7155 3.92717 42.4955C4.012 42.2755 4.14633 42.078 4.31979 41.918C5.036 41.2375 5.92328 41.0477 6.87274 41.0426C7.70819 41.0365 8.50733 41.2289 9.2918 41.4945C9.33559 41.5159 9.37676 41.5422 9.41448 41.573L8.96004 42.6814C8.46328 42.5529 7.99242 42.3881 7.50775 42.3182C6.91163 42.232 6.29822 42.2044 5.71852 42.4372C5.48439 42.5305 5.29173 42.6676 5.28222 42.9487C5.27272 43.23 5.47402 43.3956 5.70988 43.4594C6.24553 43.6052 6.79499 43.6984 7.3315 43.8415C7.87214 43.9744 8.4044 44.1391 8.92549 44.3349C9.58121 44.5936 9.96913 45.087 9.96654 45.828C9.96395 46.5689 9.67192 47.164 8.99978 47.5419C8.45204 47.8506 7.84728 47.9455 7.2382 47.9912C6.10781 48.0755 4.97476 47.8675 3.9483 47.3875C3.90853 47.3686 3.86988 47.3476 3.83252 47.3245C3.81167 47.308 3.79282 47.2892 3.77637 47.2684Z" fill="white"/>
<path fill-rule="evenodd" clip-rule="evenodd" d="M38.2453 42.4996L37.1636 43.4372C36.7212 42.7669 36.1019 42.4021 35.3139 42.4021C35.0369 42.3982 34.7619 42.4511 34.506 42.5572C34.2502 42.6634 34.0188 42.8208 33.8262 43.0197C32.9968 43.8529 32.9873 45.0812 33.8262 45.9238C34.0504 46.1606 34.3291 46.3392 34.6379 46.4443C34.9467 46.5496 35.2766 46.5782 35.599 46.5277C36.2677 46.4353 36.7808 46.0843 37.1627 45.5124L38.2281 46.4344C37.7191 47.4419 36.247 48.1846 34.945 48.0337C33.0746 47.8179 31.8866 46.4069 31.7338 44.8802C31.561 43.1223 32.5864 41.5732 34.2089 41.0668C35.7226 40.5942 37.4902 41.2127 38.2453 42.4996Z" fill="white"/>
<path fill-rule="evenodd" clip-rule="evenodd" d="M28.6055 47.8118H27.1411V42.5503H25.0046V41.1279H30.6592V42.5408H28.6055V47.8118Z" fill="white"/>
<path fill-rule="evenodd" clip-rule="evenodd" d="M23.3542 47.8273H22.1532C22.0746 47.8273 21.996 47.8196 21.894 47.8144V41.1279H23.3507L23.3542 47.8273Z" fill="white"/>
<path fill-rule="evenodd" clip-rule="evenodd" d="M42.1589 37.5566C42.1062 36.6146 42.9286 35.659 44.0441 35.6641C45.0954 35.6727 45.9447 36.4655 45.9386 37.5617C45.9386 38.7158 45.0203 39.4541 44.0379 39.4593C43.7887 39.4602 43.5418 39.4113 43.3116 39.3157C43.0815 39.22 42.8729 39.0795 42.6979 38.9022C42.5229 38.725 42.385 38.5147 42.2925 38.2836C42.2 38.0526 42.1545 37.8053 42.1589 37.5566ZM44.0319 36.4637C43.741 36.4678 43.4635 36.5872 43.2607 36.7956C43.0579 37.0038 42.9462 37.2841 42.9503 37.5747C42.9544 37.8652 43.074 38.1422 43.2826 38.3447C43.4913 38.5472 43.772 38.6587 44.063 38.6546C44.2071 38.6526 44.3494 38.6222 44.4818 38.5652C44.6141 38.5083 44.7339 38.426 44.8344 38.3227C44.9348 38.2196 45.0139 38.0977 45.0671 37.964C45.1204 37.8303 45.1467 37.6875 45.1447 37.5436C45.1426 37.3997 45.1123 37.2577 45.0552 37.1256C44.9983 36.9935 44.9156 36.8738 44.8123 36.7736C44.709 36.6733 44.587 36.5943 44.453 36.5411C44.3191 36.488 44.176 36.4617 44.0319 36.4637Z" fill="white"/>
<path fill-rule="evenodd" clip-rule="evenodd" d="M32.8492 38.0728V35.7749C33.0537 35.7643 33.2586 35.7681 33.4626 35.7862C33.5162 35.7939 33.5862 35.9372 33.587 36.0199C33.5957 36.9273 33.5922 37.8313 33.5922 38.7429V39.3424C33.3649 39.3424 33.1542 39.3563 32.9477 39.3356C32.8786 39.3278 32.8051 39.2424 32.7559 39.1768C32.2288 38.4756 31.7071 37.7709 31.1343 37.0024V39.3312H30.4016V35.7741C30.616 35.7741 30.8267 35.7638 31.0358 35.7802C31.0989 35.7853 31.1671 35.8587 31.2085 35.9173C31.6872 36.5452 32.159 37.1766 32.6366 37.8072C32.6911 37.8769 32.7473 37.9443 32.8492 38.0728Z" fill="white"/>
<path fill-rule="evenodd" clip-rule="evenodd" d="M13.3746 35.7754C13.5874 35.7647 13.8006 35.7675 14.0131 35.784C14.1114 35.815 14.1959 35.879 14.2524 35.9652C14.737 36.6009 15.2148 37.2425 15.6943 37.8818C15.7236 37.9205 15.7557 37.9577 15.8368 38.0543V36.2644C15.8368 35.7694 15.8368 35.7694 16.3276 35.771H16.5547V39.3257C16.2092 39.3377 15.8844 39.4334 15.6226 39.0254C15.2312 38.4139 14.7647 37.8507 14.3266 37.2675C14.274 37.1969 14.2178 37.1295 14.1202 37.0088V39.2945C14.0745 39.323 14.0597 39.3385 14.045 39.3394C13.3721 39.3757 13.3721 39.3757 13.3721 38.7063L13.3746 35.7754Z" fill="white"/>
<path fill-rule="evenodd" clip-rule="evenodd" d="M6.50663 35.7766H7.23494V39.3346C7.07608 39.3461 6.91651 39.3438 6.75804 39.3277C6.63498 39.3107 6.52117 39.2531 6.43493 39.1637C5.94766 38.5298 5.47594 37.8846 4.99818 37.2437C4.94721 37.1747 4.88933 37.1109 4.79516 36.9979V39.2897C4.75455 39.3112 4.73986 39.3259 4.72431 39.3268C4.05217 39.3622 4.05217 39.3622 4.05217 38.6979C4.05217 37.8078 4.05822 36.9186 4.04785 36.0293C4.04785 35.8179 4.11351 35.7706 4.31999 35.7549C4.65952 35.7266 4.87292 35.8412 5.06731 36.1189C5.48631 36.7227 5.94421 37.3041 6.38655 37.8941C6.41074 37.9259 6.44097 37.9544 6.50663 38.0269V35.7766Z" fill="white"/>
<path fill-rule="evenodd" clip-rule="evenodd" d="M36.5688 39.2874V35.7622C36.9689 35.7622 37.3576 35.7502 37.7446 35.7622C38.0277 35.7629 38.3098 35.7962 38.5852 35.8614C39.438 36.1003 39.9253 36.8387 39.8596 37.7409C39.8218 38.1292 39.652 38.4929 39.3783 38.7714C39.1046 39.05 38.7436 39.2267 38.3555 39.2719C37.7767 39.3383 37.1857 39.2874 36.5688 39.2874ZM37.2972 37.5183C37.2972 37.7943 37.2972 38.0704 37.2972 38.3464C37.2972 38.4869 37.3386 38.5654 37.4959 38.5585C37.736 38.549 37.978 38.5638 38.2164 38.5404C38.4579 38.5109 38.681 38.396 38.8452 38.2167C39.0093 38.0373 39.1037 37.8052 39.1115 37.5623C39.1235 37.0879 38.7347 36.6135 38.2596 36.554C38.0133 36.5229 37.7619 36.5342 37.5131 36.5178C37.3404 36.5065 37.298 36.5885 37.3015 36.742C37.3049 37.0017 37.2972 37.2604 37.2972 37.5183Z" fill="white"/>
<path fill-rule="evenodd" clip-rule="evenodd" d="M25.4704 36.4445C25.4384 36.4902 25.4298 36.4962 25.4289 36.504C25.3512 37.194 25.3512 37.194 26.05 37.194H27.2976V37.8324H25.4333V38.6363H27.4342V39.3176H24.7136V35.7812H27.4601C27.4673 35.9687 27.4638 36.1565 27.4497 36.3436C27.4497 36.3841 27.3201 36.4385 27.2501 36.4394C26.7508 36.448 26.2514 36.4445 25.7529 36.4445H25.4704Z" fill="white"/>
<path fill-rule="evenodd" clip-rule="evenodd" d="M20.2228 36.5394H19.104V35.7812H22.0768V36.5351H21.0116V39.315H20.2228V36.5394Z" fill="white"/>
<path fill-rule="evenodd" clip-rule="evenodd" d="M9.95825 35.7751H10.7168V39.3115H9.95825V35.7751Z" fill="white"/>
<path fill-rule="evenodd" clip-rule="evenodd" d="M47.7911 47.3326C47.7598 47.4391 47.7211 47.5434 47.6754 47.6447C47.6331 47.7036 47.5827 47.7561 47.5259 47.8008C47.4813 47.7551 47.4416 47.7048 47.4074 47.6508C47.3626 47.5568 47.3315 47.4558 47.2814 47.3239L47.201 47.8173L47.106 47.8008V46.9694C47.2347 46.9521 47.2347 46.9522 47.5379 47.4722C47.7029 47.3222 47.5631 46.9142 47.97 46.9469C48.0451 47.4843 48.0148 47.7284 47.8464 47.8034V47.3498L47.7911 47.3326Z" fill="white"/>
<path fill-rule="evenodd" clip-rule="evenodd" d="M46.503 47.1465C46.4519 47.1489 46.4008 47.1429 46.3517 47.1284C46.3095 47.0979 46.2712 47.0623 46.2378 47.0223C46.2835 46.9921 46.3242 46.9413 46.3734 46.936C46.5145 46.924 46.6565 46.924 46.7976 46.936C46.8554 46.9404 46.909 46.9913 46.9652 47.0223C46.9199 47.062 46.8717 47.0984 46.8209 47.131C46.7797 47.145 46.7366 47.1528 46.693 47.1543C46.6999 47.3066 46.6984 47.4593 46.6888 47.6114C46.666 47.6854 46.6309 47.7551 46.5851 47.8175C46.549 47.7579 46.5225 47.693 46.5065 47.6251C46.4943 47.4751 46.503 47.325 46.503 47.1465Z" fill="white"/>
<path fill-rule="evenodd" clip-rule="evenodd" d="M15.2316 11.6165C15.1893 10.2364 16.3548 8.95724 17.8848 8.96242C19.3794 8.96759 20.5794 10.0889 20.57 11.6768C20.5605 13.2648 19.2317 14.3352 17.8546 14.3015C16.3712 14.261 15.2221 13.1078 15.2316 11.6165Z" fill="white"/>
</svg>
