<svg width="52" height="50" viewBox="0 0 52 50" fill="none" xmlns="http://www.w3.org/2000/svg">
<path d="M20.5392 34.0152L20.5179 33.9508L20.49 33.8798L20.4614 33.8154L20.44 33.7511L20.4121 33.6866L20.3842 33.6151L20.3628 33.5506L20.3342 33.4868L20.3063 33.4224L20.2849 33.3579L20.2564 33.2864L20.2356 33.2226L20.2072 33.1576L20.1786 33.0938L20.1572 33.0293L20.1293 32.9578L20.1014 32.8933L20.08 32.8296L20.0514 32.7651L20.0235 32.6936L20.0021 32.6292L19.9735 32.5647L19.9456 32.6292L19.9243 32.6936L19.8958 32.7651L19.8679 32.8296L19.8464 32.8933L19.8185 32.9578L19.79 33.0293L19.7621 33.0938L19.7407 33.1576L19.7121 33.2226L19.6836 33.2864L19.6628 33.3579L19.6344 33.4224L19.6058 33.4868L19.585 33.5506L19.5565 33.6151L19.5279 33.6866L19.5 33.7511L19.4792 33.8154L19.4507 33.8798L19.4221 33.9508L19.4007 34.0152L19.3728 34.0797H20.5677L20.5392 34.0152Z" fill="white"/>
<path d="M40.9767 3.64014H9.50611C6.9552 3.64014 6.014 4.5849 6.014 7.14659V38.0544C6.01276 38.3245 6.02526 38.5944 6.05142 38.8633C6.10907 39.4263 6.12036 39.963 6.6385 40.5822C6.68901 40.6418 7.21784 41.0378 7.21784 41.0378C7.50247 41.178 7.69677 41.2812 8.01764 41.4107L23.5138 47.9279C24.3184 48.2977 24.6547 48.442 25.237 48.4307H25.2417C25.8258 48.442 26.1627 48.2977 26.9649 47.9279L42.4652 41.4107C42.786 41.2812 42.9803 41.178 43.265 41.0378C43.265 41.0378 43.7937 40.643 43.8443 40.5822C44.3624 39.9654 44.3732 39.4239 44.4314 38.8644C44.4576 38.5957 44.4701 38.3257 44.4688 38.0557V7.14659C44.4688 4.5849 43.527 3.64014 40.9767 3.64014ZM27.2038 9.59256H29.8063V26.7658H27.2038V9.59256ZM26.07 32.937L26.105 32.9937L26.1407 32.937L26.1764 32.8732L26.2186 32.8135L26.2536 32.7498L26.2887 32.6902L26.3244 32.6257L26.3666 32.566L26.4021 32.5023L26.4378 32.4425L26.4729 32.3859L26.5157 32.3222L26.5507 32.2625L26.5858 32.1987L26.6215 32.139L26.6637 32.0752L26.6992 32.0155L26.7349 31.9518L26.77 31.892L26.8057 31.8324L26.8478 31.7687L26.8829 31.7119L26.9186 31.6475L26.9536 31.5879L26.9963 31.5247L27.0314 31.465L27.0671 31.4054L27.1028 31.3415L27.1443 31.2849L27.18 31.2205L27.2151 31.1609L27.2506 31.097L27.2934 31.0404L27.3285 30.9759L27.3642 30.9193H28.8134V36.1083H27.4468V33.0724L27.4118 33.129L27.3696 33.1942L27.3339 33.2508L27.2917 33.3104L27.256 33.3743L27.2132 33.4339L27.1781 33.4935L27.1426 33.5579L27.101 33.6175L27.0653 33.6743L27.0225 33.7339L26.9874 33.7983L26.9446 33.8579L26.9096 33.9175L26.874 33.982L26.8318 34.0417L26.7968 34.1013L26.7539 34.1652L26.7189 34.2248L26.6761 34.2844L26.641 34.3488L26.6053 34.4084L26.5631 34.468L26.5281 34.5325L26.4854 34.5922L26.4503 34.6518L26.4075 34.7114L26.3718 34.7753L26.3368 34.8349L26.2941 34.8945L26.259 34.9589L26.2168 35.0157L26.1811 35.0753L26.1389 35.1397L26.1033 35.1993H26.0753L26.0325 35.1349L25.997 35.0753L25.9548 35.0108L25.9197 34.9512L25.8775 34.8868L25.8418 34.8272L25.7996 34.7628L25.764 34.703L25.7213 34.6393L25.6862 34.5797L25.644 34.5152L25.609 34.4555L25.5661 34.3918L25.5305 34.3322L25.4883 34.2677L25.4526 34.208L25.4104 34.1443L25.3683 34.0845L25.3326 34.0202L25.2904 33.9605L25.2548 33.8967L25.2126 33.837L25.1769 33.7727L25.1347 33.713L25.0991 33.6485L25.0569 33.5919L25.0219 33.5275L24.9791 33.4679L24.944 33.4034L24.9012 33.3438L24.8656 33.2794L24.8234 33.2228L24.7878 33.1578L24.7462 33.098V36.1524H23.4039V30.9634H24.8537L24.8888 31.02L24.9243 31.0845L24.9665 31.1412L25.0022 31.205L25.0379 31.2647L25.073 31.329L25.108 31.3857L25.1502 31.4495L25.1859 31.5092L25.2215 31.5688L25.2565 31.632L25.2922 31.6917L25.3344 31.7562L25.3701 31.8128L25.4051 31.8765L25.4402 31.9363L25.4829 31.9959L25.5186 32.0597L25.5536 32.1193L25.5893 32.1832L25.6244 32.2428L25.6672 32.3067L25.7022 32.3663L25.7373 32.43L25.7729 32.4868L25.8079 32.5464L25.8507 32.6102L25.8864 32.6698L25.9215 32.7343L25.9565 32.7939L25.9916 32.8577L26.0344 32.9174L26.07 32.937ZM18.781 9.59256H22.8673C24.9838 9.59256 26.0296 10.6471 26.0296 12.7817V17.345C26.0296 19.4797 24.9838 20.5342 22.8673 20.5342H21.3817V26.7658H18.7791L18.781 9.59256ZM11.6874 9.59256H17.4761V11.9717H14.2895V16.8297H17.3543V19.207H14.2895V24.3835H17.5248V26.7633H11.6874V9.59256ZM16.6134 35.4355L16.564 35.4784L16.5046 35.5208L16.4552 35.5565L16.3988 35.5995L16.3424 35.6353L16.2829 35.6777L16.2235 35.7134L16.1671 35.7493L16.1035 35.785L16.0399 35.8202L15.9763 35.856L15.9122 35.884L15.8486 35.9198L15.7779 35.9484L15.7149 35.977L15.6435 36.0052L15.5801 36.0338L15.5165 36.0552L15.4528 36.0767L15.3892 36.0982L15.3185 36.1197L15.255 36.141L15.1843 36.1554L15.1207 36.1698L15.0499 36.1834L14.9787 36.1978L14.908 36.2049L14.8307 36.212L14.76 36.2193L14.6822 36.2264L14.6115 36.2335L14.5336 36.2407H14.2294L14.1587 36.2335L14.0809 36.2264L14.0101 36.2193L13.94 36.212L13.8688 36.2049L13.798 36.1907L13.7273 36.1763L13.6643 36.1625L13.593 36.1483L13.5295 36.1268L13.4587 36.1124L13.3951 36.091L13.3315 36.0624L13.2679 36.0409L13.1973 36.0123L13.1337 35.9843L13.0701 35.9557L13.0065 35.927L12.9424 35.8912L12.8829 35.856L12.8194 35.8202L12.7629 35.785L12.7035 35.7493L12.6441 35.7063L12.5876 35.6639L12.5282 35.621L12.4789 35.578L12.4296 35.5352L12.3797 35.4857L12.3303 35.4427L12.2804 35.3925L12.2311 35.343L12.1889 35.2929L12.1467 35.2333L12.1039 35.1838L12.0683 35.1242L12.0261 35.0645L11.9905 35.0049L11.9554 34.9453L11.9197 34.8808L11.8847 34.8212L11.8758 34.774L11.8473 34.7103L11.8187 34.6458L11.7908 34.582L11.7694 34.5224L11.7409 34.4579L11.7266 34.3942L11.7058 34.3297L11.6916 34.2588L11.6702 34.1943L11.6589 34.1239L11.6488 34.0583L11.6345 33.9868L11.628 33.9229L11.6209 33.8514L11.6137 33.7804L11.6072 33.7088V33.4738L11.6137 33.3952V33.3242L11.6209 33.2525L11.628 33.1744L11.6422 33.1034L11.6488 33.0319L11.663 32.968L11.6844 32.8965L11.6987 32.8255L11.7195 32.761L11.7409 32.6902L11.7623 32.6257L11.7908 32.5542L11.8187 32.4903L11.8473 32.4259L11.8758 32.362L11.9037 32.2977L11.9388 32.2333L11.9744 32.1765L12.0095 32.1169L12.0451 32.0603L12.0808 32.0007L12.123 31.941L12.1657 31.8843L12.2079 31.8247L12.2501 31.7745L12.2994 31.725L12.3422 31.675L12.3915 31.6249L12.4414 31.5754L12.4908 31.5324L12.5502 31.4823L12.5995 31.44L12.6589 31.397L12.7183 31.3613L12.7778 31.3183L12.8372 31.2832L12.8966 31.2473L12.9602 31.2115L13.0244 31.1758L13.0879 31.1405L13.1515 31.1119L13.2151 31.0833L13.2858 31.0475L13.3452 31.026L13.4159 31.0045L13.4795 30.9765L13.5431 30.9623L13.6067 30.9408L13.678 30.9264L13.7409 30.905L13.8117 30.8907L13.8824 30.8835L13.9537 30.8692L14.0244 30.862L14.0945 30.8549L14.1653 30.8478L14.2365 30.8405H14.5401L14.618 30.8478L14.6959 30.8549H14.7487L14.8194 30.862L14.8973 30.8764L14.9608 30.8835L15.0315 30.8978L15.1023 30.9122L15.1659 30.9264L15.2295 30.9408L15.293 30.955L15.3572 30.9765L15.4208 30.9903L15.4773 31.0118L15.5407 31.0332L15.6043 31.0619L15.6679 31.0905L15.7322 31.1192L15.7952 31.1543L15.8586 31.1829L15.9181 31.2187L15.9817 31.2545L16.0411 31.2897L16.1047 31.3254L16.1611 31.3684L16.2206 31.4042L16.2799 31.4472L16.3364 31.4895L16.3929 31.5395L16.4523 31.5825L16.4102 31.6392L16.3608 31.6893L16.318 31.7489L16.2687 31.8057L16.2259 31.8653L16.1837 31.9148L16.1338 31.9744L16.0916 32.034L16.0494 32.0842L16.0001 32.1408L15.9573 32.2004L15.908 32.2572L15.8653 32.3072L15.8231 32.3669L15.7737 32.4235L15.7316 32.4832L15.6816 32.5333L15.6394 32.5899L15.5801 32.547L15.5236 32.4974L15.4671 32.4617L15.4076 32.4188L15.3513 32.3835L15.2918 32.3478L15.2354 32.312L15.1646 32.269L15.1082 32.2404L15.0518 32.2124L14.9924 32.1909L14.9287 32.1694L14.8675 32.1498L14.8034 32.1354L14.7327 32.1212L14.6619 32.1068L14.5913 32.0997L14.5111 32.0902L14.4326 32.0835H14.2847L14.214 32.0902L14.1497 32.0973L14.0791 32.1115L14.0155 32.1259L13.9519 32.1474L13.8883 32.1688L13.8247 32.1974L13.7612 32.2255L13.7048 32.2613L13.6453 32.297L13.5858 32.3329L13.5366 32.3758L13.4867 32.4182L13.4373 32.461L13.3951 32.5112L13.3458 32.5607L13.303 32.6203L13.2679 32.6704L13.2324 32.727L13.1973 32.7915L13.1616 32.8482L13.1337 32.9125L13.1123 32.977L13.0838 33.0408L13.063 33.1124L13.0487 33.1834L13.0344 33.2472L13.0201 33.3259L13.013 33.3969L13.0065 33.4684V33.6325L13.013 33.7034L13.0201 33.7679L13.0273 33.8389L13.0416 33.9033L13.0558 33.9677L13.0701 34.0315L13.0909 34.0959L13.1123 34.1525L13.1408 34.2242L13.1688 34.2879L13.2038 34.3524L13.2395 34.412L13.2751 34.4717L13.3173 34.5313L13.3601 34.5814L13.4094 34.6309L13.4516 34.681L13.5009 34.7239L13.5603 34.7663L13.6197 34.8093L13.6762 34.845L13.7356 34.8808L13.7992 34.9089L13.8628 34.9375L13.927 34.9662L13.9976 34.9875L14.0677 35.009L14.1391 35.0234L14.2098 35.0377L14.2804 35.0448L14.3577 35.052H14.5206L14.5983 35.0448L14.6762 35.0377L14.747 35.0305L14.8177 35.0162L14.8883 35.0019L14.959 34.9804L15.0226 34.9662L15.0863 34.9375L15.1456 34.9089L15.2086 34.8808L15.2585 34.8522L15.315 34.8164V34.1592H14.2799V33.1189H16.6134V35.4355ZM17.1654 36.0767L17.1933 36.0123L17.2218 35.9484L17.2498 35.8769L17.271 35.813L17.2996 35.7493L17.3281 35.6848L17.3561 35.621L17.3846 35.5565L17.4132 35.4857L17.4411 35.4212L17.4696 35.3574L17.4904 35.2929L17.5188 35.2285L17.5469 35.1648L17.5753 35.0932L17.6038 35.0293L17.6318 34.9649L17.6603 34.9005L17.6889 34.8367L17.7103 34.7723L17.7382 34.7013L17.7661 34.6369L17.7946 34.573L17.8226 34.5087L17.851 34.4443L17.8795 34.3804L17.9075 34.3088L17.9289 34.245L17.9574 34.1807L17.986 34.1168L18.0139 34.0524L18.0424 33.9879L18.0703 33.917L18.0988 33.8525L18.1268 33.7888L18.1481 33.7243L18.1766 33.6605L18.2046 33.5962L18.2331 33.5245L18.2617 33.4607L18.2896 33.3963L18.3181 33.3325L18.346 33.268L18.3675 33.2037L18.3959 33.1404L18.4238 33.0689L18.4523 33.005L18.4803 32.9407L18.5088 32.8762L18.5374 32.8124L18.5653 32.7479L18.5867 32.677L18.6152 32.6125L18.6432 32.5482L18.6716 32.4843L18.6996 32.4199L18.728 32.3562L18.756 32.2845L18.7845 32.2208L18.8059 32.1563L18.8345 32.0919L18.8624 32.028L18.8909 31.9637L18.9188 31.8927L18.9474 31.8283L18.9753 31.7644L19.0037 31.7L19.0246 31.6357L19.0531 31.5718L19.0816 31.5003L19.1102 31.4364L19.1381 31.372L19.1666 31.3075L19.1952 31.2438L19.2231 31.1793L19.2445 31.1084L19.2724 31.0439L19.3008 30.9802L19.3288 30.9157H20.636L20.6646 30.9802L20.6931 31.0439L20.721 31.1084L20.7489 31.1793L20.7704 31.2438L20.7983 31.3075L20.8268 31.372L20.8554 31.4364L20.8838 31.5003L20.9117 31.5718L20.9403 31.6357L20.9688 31.7L20.9896 31.7644L21.0461 31.8927L21.0746 31.9637L21.1067 32.0304L21.1352 32.0943L21.1637 32.1587L21.1917 32.2232L21.2131 32.2869L21.2415 32.3585L21.2694 32.4223L21.298 32.4868L21.3259 32.5505L21.3544 32.6149L21.3823 32.6794L21.4109 32.7504L21.4323 32.8148L21.4602 32.8785L21.4888 32.943L21.5172 33.0074L21.5457 33.0713L21.5737 33.1428L21.6022 33.206L21.6301 33.2704L21.6515 33.3349L21.6795 33.3987L21.708 33.463L21.7359 33.5269L21.7645 33.5985L21.793 33.6629L21.8214 33.7268L21.8494 33.7912L21.8708 33.8549L21.8987 33.9194L21.9272 33.9903L21.9552 34.0548L21.9837 34.1192L22.0122 34.183L22.0402 34.2474L22.0687 34.3113L22.0901 34.3828L22.118 34.4467L22.1465 34.511L22.175 34.5754L22.2029 34.6393L22.2315 34.7037L22.2594 34.7747L22.2879 34.839L22.3087 34.9029L22.3373 34.9673L22.3658 35.0318L22.3937 35.0955L22.4222 35.1672L22.4507 35.2309L22.4786 35.2954L22.5072 35.3598L22.5286 35.4235L22.5565 35.488L22.5844 35.5589L22.613 35.6234L22.6415 35.6872L22.6694 35.7517L22.698 35.8154L22.7264 35.8793L22.7478 35.9508L22.7757 36.0147L22.8043 36.079L22.8322 36.1435H21.3722L21.3443 36.079L21.323 36.0147L21.2951 35.9508L21.2665 35.8793L21.2458 35.8154L21.2172 35.7517L21.1887 35.6872L21.1661 35.621L21.1376 35.5565L21.109 35.4928L21.0876 35.4284L21.0597 35.3574L21.0312 35.2929L21.0104 35.2285L20.9818 35.1648H18.9539L18.926 35.2285L18.9081 35.2929L18.8797 35.3574L18.8487 35.4302L18.828 35.4945L18.7994 35.5584L18.7709 35.6228L18.7494 35.6867L18.7215 35.751L18.693 35.8148L18.6716 35.8787L18.6437 35.9503L18.6157 36.014L18.5944 36.0784L18.5659 36.1429H17.1398L17.1654 36.0767ZM25.121 44.8115L17.8267 42.2939H32.7256L25.121 44.8115ZM33.98 36.141H29.8575V30.9522H33.9444V32.1283H31.208V32.977H33.6687V34.0817H31.208V34.9649H33.98V36.141ZM31.1819 23.7239V12.6344C31.1819 10.4997 32.2283 9.44525 34.3443 9.44525H35.6093C37.7253 9.44525 38.7467 10.4759 38.7467 12.6099V16.1182H36.1916V12.7573C36.1916 12.0702 35.8755 11.7511 35.2183 11.7511H34.781C34.1 11.7511 33.7834 12.0702 33.7834 12.7573V23.601C33.7834 24.2882 34.1 24.6067 34.781 24.6067H35.2676C35.9212 24.6067 36.2403 24.2882 36.2403 23.601V19.7242H38.7954V23.7233C38.7954 25.8579 37.7495 26.9124 35.6336 26.9124H34.3443C32.2283 26.913 31.1819 25.8585 31.1819 23.7239ZM38.8732 34.6369L38.8661 34.7157L38.859 34.7865L38.8518 34.8653L38.8376 34.9363L38.8168 35.0079L38.8025 35.0717L38.7811 35.1433L38.7532 35.207L38.7246 35.2667L38.6967 35.3312L38.6611 35.3908L38.6255 35.4504L38.5833 35.51L38.5476 35.5697L38.5054 35.6198L38.4561 35.6699L38.4139 35.7123L38.3545 35.7624L38.3052 35.8053L38.2457 35.8477L38.1893 35.8828L38.1334 35.9258L38.0693 35.9615L38.0057 35.9902L37.9421 36.0254L37.8714 36.054L37.8008 36.0827L37.73 36.1042L37.6593 36.1255L37.5957 36.147L37.5249 36.1614L37.4615 36.1757L37.3978 36.1894L37.3265 36.2037L37.2564 36.2109L37.1929 36.218L37.1215 36.2252L37.0436 36.2324L36.9735 36.2395H36.6764L36.6058 36.2324H36.5279L36.4572 36.2252L36.3865 36.218L36.3087 36.2109L36.238 36.1965L36.1672 36.1894L36.0965 36.1757L36.033 36.1459L35.9616 36.1339L35.8909 36.1197L35.8203 36.0982L35.7567 36.0838L35.6859 36.0624L35.6152 36.0409L35.5516 36.0123L35.481 35.9914L35.4174 35.9699L35.3466 35.9413L35.2825 35.9127L35.2194 35.884L35.156 35.8488L35.0917 35.8202L35.0288 35.788L34.9723 35.7522L34.9087 35.7164L34.8523 35.6807L34.7929 35.6454L34.6799 35.5595L34.6206 35.5167L34.5641 35.4743L34.5142 35.4313L34.4548 35.3813L34.4975 35.3215L34.5468 35.2715L34.589 35.2119L34.639 35.1522L34.6812 35.1022L34.7234 35.0424L34.7732 34.9828L34.8154 34.9327L34.8654 34.873L34.9076 34.8229L34.9569 34.7633L34.9991 34.7037L35.0418 34.6535L35.0911 34.5939L35.1339 34.5343L35.1833 34.4842L35.2254 34.4245L35.2819 34.4675L35.3455 34.5104L35.4049 34.5534L35.4685 34.5958L35.5249 34.6315L35.5885 34.6744L35.645 34.7103L35.7091 34.7383L35.7656 34.774L35.8292 34.8027L35.8928 34.8313L35.9563 34.8599L36.0199 34.8808L36.0835 34.9094L36.1542 34.9309L36.2248 34.9524L36.2884 34.9739L36.3598 34.9882L36.4299 35.0025L36.5006 35.0168L36.5784 35.0239L36.6491 35.0377H36.7199L36.7977 35.0448H36.9534L37.0306 35.0377L37.1019 35.0239L37.1655 35.0097L37.2291 34.9953L37.2885 34.9739L37.3379 34.9453L37.3972 34.9023L37.4394 34.8528L37.468 34.7932L37.4894 34.7288L37.4965 34.6578V34.6434L37.4894 34.5575L37.4608 34.4865L37.4251 34.4365L37.3758 34.3942L37.3165 34.3512L37.2606 34.3225L37.197 34.2939L37.1257 34.2653L37.0408 34.2302L36.9914 34.2158L36.9356 34.2015L36.8714 34.18L36.8078 34.1657L36.737 34.1443L36.6664 34.1299L36.5885 34.1084L36.5178 34.0947L36.4399 34.0733L36.3693 34.0589L36.2986 34.0374L36.2278 34.0232L36.1571 34.0017L36.0936 33.9802L36.0229 33.9659L35.9593 33.9444L35.8957 33.9235L35.8321 33.902L35.7543 33.8734L35.6836 33.8448L35.6128 33.8162L35.5457 33.8198L35.4821 33.7845L35.4114 33.7488L35.352 33.713L35.2884 33.6772L35.232 33.6349L35.1755 33.599L35.1262 33.5562L35.0763 33.5067L35.027 33.4565L34.9842 33.4064L34.9426 33.3563L34.9069 33.3068L34.8719 33.2472L34.8362 33.1834L34.8078 33.1339L34.7864 33.0742L34.7656 33.0098L34.7442 32.9532L34.7299 32.8815L34.7156 32.8178L34.7085 32.7462L34.7013 32.6752L34.6942 32.5965V32.4324L34.7013 32.3615L34.7085 32.297L34.7156 32.2255L34.7299 32.1617L34.7442 32.0973L34.7656 32.0334L34.7798 31.969L34.8078 31.9052L34.8362 31.8408L34.8647 31.777L34.8998 31.7125L34.9348 31.6482L34.977 31.5915L35.0199 31.5318L35.0692 31.4722L35.119 31.4227L35.1684 31.363L35.2248 31.3129L35.2742 31.2778L35.3336 31.2348L35.3901 31.1919L35.4464 31.156L35.51 31.1209L35.5736 31.0923L35.6372 31.0565L35.7013 31.0279L35.7721 31.0064L35.8422 30.9783L35.9064 30.9569L35.9629 30.9425L36.0264 30.9283L36.09 30.9139L36.1607 30.8997L36.2243 30.8853L36.2949 30.8782L36.3663 30.871L36.4364 30.8638L36.5072 30.8567H36.8114L36.8891 30.8638L36.967 30.871H37.0371L37.1156 30.8782L37.1863 30.8924L37.2641 30.8997L37.3342 30.9139L37.3985 30.9283L37.4691 30.9425L37.5398 30.9569L37.6034 30.9712L37.6742 30.992L37.7378 31.0135L37.8013 31.0279L37.872 31.0565L37.9356 31.0779L37.9992 31.1065L38.0627 31.1352L38.134 31.1633L38.197 31.199L38.2535 31.2277L38.3176 31.2634L38.3812 31.2987L38.4377 31.3344L38.5013 31.3774L38.5577 31.4132L38.6171 31.456L38.6765 31.4984L38.733 31.5414L38.6908 31.601L38.6551 31.6577L38.6129 31.7173L38.5701 31.777L38.5281 31.8408L38.4924 31.9004L38.4502 31.957L38.408 32.0168L38.3723 32.0764L38.3301 32.133L38.2873 32.1927L38.2517 32.2523L38.2095 32.3168L38.1673 32.3764L38.1252 32.433L38.0895 32.4927L38.0473 32.5494L37.9878 32.507L37.9243 32.4713L37.8649 32.4354L37.8084 32.393L37.7448 32.3644L37.6854 32.3287L37.6218 32.3L37.566 32.2714L37.5065 32.2273L37.4472 32.1993L37.3836 32.1778L37.3284 32.1498L37.2505 32.1283L37.1797 32.1068L37.109 32.0859L37.0378 32.0717L36.9676 32.0573L36.8969 32.043L36.8262 32.0358L36.7549 32.0287L36.692 32.0215H36.5362L36.4584 32.0358L36.3877 32.0502L36.3241 32.0644L36.2676 32.0925L36.2178 32.1212L36.1542 32.1808L36.112 32.2445L36.0841 32.309L36.0763 32.3805V32.3949L36.0841 32.4873L36.1191 32.5654L36.1471 32.6084L36.1964 32.6585L36.2605 32.6943L36.317 32.7295L36.3877 32.7582L36.4656 32.7868L36.5505 32.8154L36.6099 32.8297L36.6664 32.8505L36.7299 32.8649L36.7935 32.8863L36.8642 32.9007L36.9427 32.9222L37.0199 32.9437L37.0977 32.965L37.1756 32.9794L37.2464 33.0009L37.3236 33.0218L37.3948 33.036L37.4656 33.0575L37.5363 33.079L37.5998 33.1004L37.6705 33.1219L37.7341 33.1434L37.7977 33.1643L37.8756 33.1929L37.9462 33.2282L38.017 33.2568L38.0877 33.2925L38.1518 33.3283L38.2148 33.3635L38.2713 33.3993L38.3307 33.4423L38.3901 33.478L38.4465 33.5275L38.506 33.5777L38.5554 33.6373L38.6052 33.6868L38.6474 33.7464L38.6902 33.8108L38.7253 33.8675L38.7609 33.9319L38.7889 33.9885L38.8103 34.0529L38.8317 34.1174L38.8453 34.1812L38.8596 34.2528L38.8739 34.3238L38.881 34.3953L38.8881 34.4734L38.8732 34.6369Z" fill="white"/>
<path d="M23.4277 17.2269V12.9087C23.4277 12.2222 23.1115 11.9031 22.455 11.9031H21.3855V18.2331H22.455C23.1115 18.2331 23.4277 17.9139 23.4277 17.2269Z" fill="white"/>
</svg>
